<svg width="144" height="40" viewBox="0 0 144 40" fill="none" xmlns="http://www.w3.org/2000/svg">
<path d="M40 20C40 23.6891 39.0012 27.1449 37.2592 30.1118L31.4286 28.2081V10.2857C31.4286 7.76098 29.3819 5.71429 26.8571 5.71429H13.1429C10.6181 5.71429 8.57143 7.76099 8.57143 10.2857V29.7143C8.57143 32.239 10.6181 34.2857 13.1429 34.2857H26.1093L27.5005 38.546C25.1843 39.4837 22.6524 40 20 40C8.9543 40 0 31.0457 0 20C0 8.9543 8.9543 0 20 0C31.0457 0 40 8.9543 40 20Z" fill="#0D9E47"/>
<path d="M24.5225 29.4264L24.1493 28.2835H18.2857V29.4264H24.5225Z" fill="#0D9E47"/>
<path d="M16.2126 9.63461C16.3692 9.3606 16.274 9.01154 16 8.85496C15.726 8.69839 15.3769 8.79358 15.2203 9.06759L13.9158 11.3505L13.3795 10.8141C13.1564 10.591 12.7946 10.591 12.5714 10.8141C12.3483 11.0373 12.3483 11.3991 12.5714 11.6223L13.6367 12.6876C13.9032 12.954 14.35 12.8942 14.5369 12.567L16.2126 9.63461Z" fill="#0D9E47"/>
<path d="M18.2857 11.1407H28.5714V12.2835H18.2857V11.1407Z" fill="#0D9E47"/>
<path d="M28.5714 22.5692H18.2857V23.7121H28.5714V22.5692Z" fill="#0D9E47"/>
<path d="M18.2857 16.8549H28.5714V17.9978H18.2857V16.8549Z" fill="#0D9E47"/>
<path d="M16 26.5693C16.274 26.7258 16.3692 27.0749 16.2126 27.3489L14.5369 30.2813C14.35 30.6085 13.9032 30.6683 13.6367 30.4019L12.5714 29.3366C12.3483 29.1134 12.3483 28.7516 12.5714 28.5284C12.7946 28.3053 13.1564 28.3053 13.3795 28.5284L13.9158 29.0647L15.2203 26.7819C15.3769 26.5079 15.726 26.4127 16 26.5693Z" fill="#0D9E47"/>
<path d="M16.2126 15.3489C16.3692 15.0749 16.274 14.7258 16 14.5692C15.726 14.4127 15.3769 14.5079 15.2203 14.7819L13.9158 17.0647L13.3795 16.5284C13.1564 16.3053 12.7946 16.3053 12.5714 16.5284C12.3483 16.7516 12.3483 17.1134 12.5714 17.3366L13.6367 18.4019C13.9032 18.6683 14.35 18.6085 14.5369 18.2813L16.2126 15.3489Z" fill="#0D9E47"/>
<path d="M13.9999 22.1826L14.9915 21.1911C15.1771 21.0054 15.4781 21.0054 15.6638 21.1911C15.8494 21.3767 15.8494 21.6777 15.6638 21.8634L14.6722 22.8549L15.6638 23.8465C15.8494 24.0321 15.8494 24.3331 15.6638 24.5188C15.4781 24.7044 15.1771 24.7044 14.9915 24.5188L13.9999 23.5272L13.0084 24.5188C12.8227 24.7044 12.5217 24.7044 12.3361 24.5188C12.1504 24.3331 12.1504 24.0321 12.3361 23.8465L13.3276 22.8549L12.3361 21.8634C12.1504 21.6777 12.1504 21.3767 12.3361 21.1911C12.5217 21.0054 12.8227 21.0054 13.0084 21.1911L13.9999 22.1826Z" fill="#0D9E47"/>
<path d="M36.3832 37.9883L35.7033 38.6681C35.6436 38.728 35.5726 38.7756 35.4945 38.808C35.4163 38.8404 35.3326 38.8571 35.2479 38.8571C35.1633 38.8571 35.0796 38.8404 35.0014 38.808C34.9233 38.7756 34.8523 38.728 34.7926 38.6681L31.762 35.6377L30.7318 38.3247L30.7248 38.3424C30.6591 38.4953 30.5499 38.6256 30.4107 38.7169C30.2716 38.8083 30.1086 38.8567 29.9421 38.8561H29.9003C29.7268 38.8488 29.5596 38.7884 29.4216 38.683C29.2835 38.5776 29.1811 38.4323 29.1283 38.2668L26.3281 29.6916C26.279 29.5416 26.2724 29.3808 26.3091 29.2273C26.3458 29.0737 26.4243 28.9333 26.536 28.8217C26.6476 28.71 26.788 28.6315 26.9416 28.5948C27.0952 28.5581 27.2559 28.5647 27.406 28.6138L35.9819 31.4138C36.1458 31.4687 36.2893 31.5718 36.3936 31.7096C36.4978 31.8474 36.558 32.0135 36.5662 32.1861C36.5743 32.3588 36.5301 32.5298 36.4393 32.6769C36.3486 32.8239 36.2154 32.9401 36.0574 33.0102L36.0397 33.0171L33.3525 34.0494L36.3832 37.0792C36.5037 37.1998 36.5714 37.3633 36.5714 37.5338C36.5714 37.7042 36.5037 37.8677 36.3832 37.9883Z" fill="#0D9E47"/>
<path d="M62.2812 13.625V25H59.9375V15.4609H55.3672V25H53.0234V13.625H62.2812ZM66.4375 18.1719V28.25H64.1875V16.5469H66.2734L66.4375 18.1719ZM71.7891 20.6797V20.8438C71.7891 21.4583 71.7161 22.0286 71.5703 22.5547C71.4297 23.0807 71.2214 23.5391 70.9453 23.9297C70.6693 24.3151 70.3255 24.6172 69.9141 24.8359C69.5078 25.0495 69.0391 25.1562 68.5078 25.1562C67.9922 25.1562 67.5443 25.0521 67.1641 24.8438C66.7839 24.6354 66.4635 24.3438 66.2031 23.9688C65.9479 23.5885 65.7422 23.1484 65.5859 22.6484C65.4297 22.1484 65.3099 21.612 65.2266 21.0391V20.6094C65.3099 19.9948 65.4297 19.4323 65.5859 18.9219C65.7422 18.4062 65.9479 17.9609 66.2031 17.5859C66.4635 17.2057 66.7812 16.9115 67.1562 16.7031C67.5365 16.4948 67.9818 16.3906 68.4922 16.3906C69.0286 16.3906 69.5 16.4922 69.9062 16.6953C70.3177 16.8984 70.6615 17.1901 70.9375 17.5703C71.2188 17.9505 71.4297 18.4036 71.5703 18.9297C71.7161 19.4557 71.7891 20.0391 71.7891 20.6797ZM69.5312 20.8438V20.6797C69.5312 20.3203 69.5 19.9896 69.4375 19.6875C69.3802 19.3802 69.2865 19.112 69.1562 18.8828C69.0312 18.6536 68.8646 18.4766 68.6562 18.3516C68.4531 18.2214 68.2057 18.1562 67.9141 18.1562C67.6068 18.1562 67.3438 18.2057 67.125 18.3047C66.9115 18.4036 66.737 18.5469 66.6016 18.7344C66.4661 18.9219 66.3646 19.1458 66.2969 19.4062C66.2292 19.6667 66.1875 19.9609 66.1719 20.2891V21.375C66.1979 21.7604 66.2708 22.1068 66.3906 22.4141C66.5104 22.7161 66.6953 22.9557 66.9453 23.1328C67.1953 23.3099 67.5234 23.3984 67.9297 23.3984C68.2266 23.3984 68.4766 23.3333 68.6797 23.2031C68.8828 23.0677 69.0469 22.8828 69.1719 22.6484C69.3021 22.4141 69.3932 22.1432 69.4453 21.8359C69.5026 21.5286 69.5312 21.1979 69.5312 20.8438ZM72.8281 20.8594V20.6953C72.8281 20.0755 72.9167 19.5052 73.0938 18.9844C73.2708 18.4583 73.5286 18.0026 73.8672 17.6172C74.2057 17.2318 74.6224 16.9323 75.1172 16.7188C75.612 16.5 76.1797 16.3906 76.8203 16.3906C77.4609 16.3906 78.0312 16.5 78.5312 16.7188C79.0312 16.9323 79.4505 17.2318 79.7891 17.6172C80.1328 18.0026 80.3932 18.4583 80.5703 18.9844C80.7474 19.5052 80.8359 20.0755 80.8359 20.6953V20.8594C80.8359 21.474 80.7474 22.0443 80.5703 22.5703C80.3932 23.0911 80.1328 23.5469 79.7891 23.9375C79.4505 24.3229 79.0339 24.6224 78.5391 24.8359C78.0443 25.0495 77.4766 25.1562 76.8359 25.1562C76.1953 25.1562 75.625 25.0495 75.125 24.8359C74.6302 24.6224 74.2109 24.3229 73.8672 23.9375C73.5286 23.5469 73.2708 23.0911 73.0938 22.5703C72.9167 22.0443 72.8281 21.474 72.8281 20.8594ZM75.0781 20.6953V20.8594C75.0781 21.2135 75.1094 21.5443 75.1719 21.8516C75.2344 22.1589 75.3333 22.4297 75.4688 22.6641C75.6094 22.8932 75.7917 23.0729 76.0156 23.2031C76.2396 23.3333 76.513 23.3984 76.8359 23.3984C77.1484 23.3984 77.4167 23.3333 77.6406 23.2031C77.8646 23.0729 78.0443 22.8932 78.1797 22.6641C78.3151 22.4297 78.4141 22.1589 78.4766 21.8516C78.5443 21.5443 78.5781 21.2135 78.5781 20.8594V20.6953C78.5781 20.3516 78.5443 20.0286 78.4766 19.7266C78.4141 19.4193 78.3125 19.1484 78.1719 18.9141C78.0365 18.6745 77.8568 18.487 77.6328 18.3516C77.4089 18.2161 77.138 18.1484 76.8203 18.1484C76.5026 18.1484 76.2318 18.2161 76.0078 18.3516C75.7891 18.487 75.6094 18.6745 75.4688 18.9141C75.3333 19.1484 75.2344 19.4193 75.1719 19.7266C75.1094 20.0286 75.0781 20.3516 75.0781 20.6953ZM86.4297 21.4688H83.7812L83.7656 19.9922H85.9531C86.2448 19.9922 86.4818 19.9635 86.6641 19.9062C86.8464 19.8438 86.9792 19.7526 87.0625 19.6328C87.151 19.5078 87.1953 19.3568 87.1953 19.1797C87.1953 19.0234 87.1667 18.8906 87.1094 18.7812C87.0573 18.6667 86.9766 18.5729 86.8672 18.5C86.7578 18.4271 86.6198 18.375 86.4531 18.3438C86.2917 18.3073 86.1016 18.2891 85.8828 18.2891H84.6172V25H82.3672V16.5469H85.8828C86.4349 16.5469 86.9297 16.5964 87.3672 16.6953C87.8047 16.7891 88.1771 16.9323 88.4844 17.125C88.7969 17.3177 89.0339 17.5625 89.1953 17.8594C89.362 18.151 89.4453 18.4974 89.4453 18.8984C89.4453 19.1589 89.3854 19.4036 89.2656 19.6328C89.151 19.862 88.9792 20.0651 88.75 20.2422C88.5208 20.4193 88.237 20.5651 87.8984 20.6797C87.5651 20.7891 87.1797 20.8568 86.7422 20.8828L86.4297 21.4688ZM86.4297 25H83.2266L84 23.2578H86.4297C86.7057 23.2578 86.9323 23.224 87.1094 23.1562C87.2865 23.0885 87.4167 22.9896 87.5 22.8594C87.5885 22.724 87.6328 22.5625 87.6328 22.375C87.6328 22.1927 87.5938 22.0339 87.5156 21.8984C87.4375 21.763 87.3099 21.6589 87.1328 21.5859C86.9609 21.5078 86.7266 21.4688 86.4297 21.4688H84.3281L84.3438 19.9922H86.7344L87.2812 20.5859C87.875 20.6224 88.3646 20.7344 88.75 20.9219C89.1354 21.1094 89.4193 21.349 89.6016 21.6406C89.7891 21.9271 89.8828 22.2422 89.8828 22.5859C89.8828 22.987 89.8073 23.3385 89.6562 23.6406C89.5052 23.9427 89.2812 24.1953 88.9844 24.3984C88.6927 24.5964 88.3333 24.7474 87.9062 24.8516C87.4792 24.9505 86.987 25 86.4297 25ZM95.1562 25.1562C94.5 25.1562 93.9115 25.0521 93.3906 24.8438C92.8698 24.6302 92.4271 24.3359 92.0625 23.9609C91.7031 23.5859 91.4271 23.151 91.2344 22.6562C91.0417 22.1562 90.9453 21.625 90.9453 21.0625V20.75C90.9453 20.1094 91.0365 19.5234 91.2188 18.9922C91.401 18.4609 91.6615 18 92 17.6094C92.3438 17.2188 92.7604 16.9193 93.25 16.7109C93.7396 16.4974 94.2917 16.3906 94.9062 16.3906C95.5052 16.3906 96.0365 16.4896 96.5 16.6875C96.9635 16.8854 97.3516 17.1667 97.6641 17.5312C97.9818 17.8958 98.2214 18.3333 98.3828 18.8438C98.5443 19.349 98.625 19.9115 98.625 20.5312V21.4688H91.9062V19.9688H96.4141V19.7969C96.4141 19.4844 96.3568 19.2057 96.2422 18.9609C96.1328 18.7109 95.9661 18.513 95.7422 18.3672C95.5182 18.2214 95.2318 18.1484 94.8828 18.1484C94.5859 18.1484 94.3307 18.2135 94.1172 18.3438C93.9036 18.474 93.7292 18.6562 93.5938 18.8906C93.4635 19.125 93.3646 19.401 93.2969 19.7188C93.2344 20.0312 93.2031 20.375 93.2031 20.75V21.0625C93.2031 21.401 93.25 21.7135 93.3438 22C93.4427 22.2865 93.5807 22.5339 93.7578 22.7422C93.9401 22.9505 94.1589 23.112 94.4141 23.2266C94.6745 23.3411 94.9688 23.3984 95.2969 23.3984C95.7031 23.3984 96.0807 23.3203 96.4297 23.1641C96.7839 23.0026 97.0885 22.7604 97.3438 22.4375L98.4375 23.625C98.2604 23.8802 98.0182 24.125 97.7109 24.3594C97.4089 24.5938 97.0443 24.7865 96.6172 24.9375C96.1901 25.0833 95.7031 25.1562 95.1562 25.1562ZM102.156 18.1719V28.25H99.9062V16.5469H101.992L102.156 18.1719ZM107.508 20.6797V20.8438C107.508 21.4583 107.435 22.0286 107.289 22.5547C107.148 23.0807 106.94 23.5391 106.664 23.9297C106.388 24.3151 106.044 24.6172 105.633 24.8359C105.227 25.0495 104.758 25.1562 104.227 25.1562C103.711 25.1562 103.263 25.0521 102.883 24.8438C102.503 24.6354 102.182 24.3438 101.922 23.9688C101.667 23.5885 101.461 23.1484 101.305 22.6484C101.148 22.1484 101.029 21.612 100.945 21.0391V20.6094C101.029 19.9948 101.148 19.4323 101.305 18.9219C101.461 18.4062 101.667 17.9609 101.922 17.5859C102.182 17.2057 102.5 16.9115 102.875 16.7031C103.255 16.4948 103.701 16.3906 104.211 16.3906C104.747 16.3906 105.219 16.4922 105.625 16.6953C106.036 16.8984 106.38 17.1901 106.656 17.5703C106.938 17.9505 107.148 18.4036 107.289 18.9297C107.435 19.4557 107.508 20.0391 107.508 20.6797ZM105.25 20.8438V20.6797C105.25 20.3203 105.219 19.9896 105.156 19.6875C105.099 19.3802 105.005 19.112 104.875 18.8828C104.75 18.6536 104.583 18.4766 104.375 18.3516C104.172 18.2214 103.924 18.1562 103.633 18.1562C103.326 18.1562 103.062 18.2057 102.844 18.3047C102.63 18.4036 102.456 18.5469 102.32 18.7344C102.185 18.9219 102.083 19.1458 102.016 19.4062C101.948 19.6667 101.906 19.9609 101.891 20.2891V21.375C101.917 21.7604 101.99 22.1068 102.109 22.4141C102.229 22.7161 102.414 22.9557 102.664 23.1328C102.914 23.3099 103.242 23.3984 103.648 23.3984C103.945 23.3984 104.195 23.3333 104.398 23.2031C104.602 23.0677 104.766 22.8828 104.891 22.6484C105.021 22.4141 105.112 22.1432 105.164 21.8359C105.221 21.5286 105.25 21.1979 105.25 20.8438ZM110.727 20.7812H113.008L110.656 25H108.383L110.727 20.7812ZM112.242 16.5469H115.953V25H113.703V18.2891H112.242C111.935 18.2891 111.68 18.3464 111.477 18.4609C111.273 18.5703 111.122 18.7135 111.023 18.8906C110.93 19.0625 110.883 19.2396 110.883 19.4219C110.883 19.599 110.93 19.7708 111.023 19.9375C111.117 20.1042 111.263 20.2422 111.461 20.3516C111.659 20.4609 111.906 20.5156 112.203 20.5156H114.539V22.0469H112.203C111.646 22.0469 111.146 21.9792 110.703 21.8438C110.266 21.7083 109.891 21.5208 109.578 21.2812C109.271 21.0365 109.034 20.7526 108.867 20.4297C108.706 20.1016 108.625 19.7422 108.625 19.3516C108.625 18.9453 108.708 18.5729 108.875 18.2344C109.042 17.8958 109.281 17.599 109.594 17.3438C109.906 17.0885 110.284 16.8932 110.727 16.7578C111.174 16.6172 111.68 16.5469 112.242 16.5469ZM120.102 21.8594L122.938 16.5469H125.188V25H122.938V19.6797L120.102 25H117.852V16.5469H120.102V21.8594ZM122.68 13.1484H124.281C124.281 13.5964 124.169 13.9948 123.945 14.3438C123.727 14.6875 123.414 14.9583 123.008 15.1562C122.602 15.349 122.122 15.4453 121.57 15.4453C120.732 15.4453 120.068 15.2318 119.578 14.8047C119.094 14.3776 118.852 13.8255 118.852 13.1484H120.445C120.445 13.4193 120.529 13.6615 120.695 13.875C120.867 14.0885 121.159 14.1953 121.57 14.1953C121.977 14.1953 122.263 14.0885 122.43 13.875C122.596 13.6615 122.68 13.4193 122.68 13.1484ZM129.32 16.5469V25H127.07V16.5469H129.32ZM134.812 16.5469L131.172 21.8359H128.922L128.648 19.7578H130.141L131.961 16.5469H134.812ZM132.062 25L129.984 21.4297L131.945 20.3438L135.078 25H132.062ZM140.484 23.0938V19.3281C140.484 19.0573 140.44 18.8255 140.352 18.6328C140.263 18.4349 140.125 18.2812 139.938 18.1719C139.755 18.0625 139.518 18.0078 139.227 18.0078C138.977 18.0078 138.76 18.0521 138.578 18.1406C138.396 18.224 138.255 18.3464 138.156 18.5078C138.057 18.6641 138.008 18.849 138.008 19.0625H135.758C135.758 18.7031 135.841 18.362 136.008 18.0391C136.174 17.7161 136.417 17.4323 136.734 17.1875C137.052 16.9375 137.43 16.7422 137.867 16.6016C138.31 16.4609 138.805 16.3906 139.352 16.3906C140.008 16.3906 140.591 16.5 141.102 16.7188C141.612 16.9375 142.013 17.2656 142.305 17.7031C142.602 18.1406 142.75 18.6875 142.75 19.3438V22.9609C142.75 23.4245 142.779 23.8047 142.836 24.1016C142.893 24.3932 142.977 24.6484 143.086 24.8672V25H140.812C140.703 24.7708 140.62 24.4844 140.562 24.1406C140.51 23.7917 140.484 23.4427 140.484 23.0938ZM140.781 19.8516L140.797 21.125H139.539C139.242 21.125 138.984 21.1589 138.766 21.2266C138.547 21.2943 138.367 21.3906 138.227 21.5156C138.086 21.6354 137.982 21.776 137.914 21.9375C137.852 22.099 137.82 22.276 137.82 22.4688C137.82 22.6615 137.865 22.8359 137.953 22.9922C138.042 23.1432 138.169 23.263 138.336 23.3516C138.503 23.4349 138.698 23.4766 138.922 23.4766C139.26 23.4766 139.555 23.4089 139.805 23.2734C140.055 23.138 140.247 22.9714 140.383 22.7734C140.523 22.5755 140.596 22.388 140.602 22.2109L141.195 23.1641C141.112 23.3776 140.997 23.599 140.852 23.8281C140.711 24.0573 140.531 24.2734 140.312 24.4766C140.094 24.6745 139.831 24.8385 139.523 24.9688C139.216 25.0938 138.852 25.1562 138.43 25.1562C137.893 25.1562 137.406 25.0495 136.969 24.8359C136.536 24.6172 136.193 24.3177 135.938 23.9375C135.688 23.5521 135.562 23.1146 135.562 22.625C135.562 22.1823 135.646 21.7891 135.812 21.4453C135.979 21.1016 136.224 20.8125 136.547 20.5781C136.875 20.3385 137.284 20.1589 137.773 20.0391C138.263 19.9141 138.831 19.8516 139.477 19.8516H140.781Z" fill="black" fill-opacity="0.88"/>
</svg>
