<svg width="40" height="40" viewBox="0 0 40 40" fill="none" xmlns="http://www.w3.org/2000/svg">
<path d="M40 20C40 23.6891 39.0012 27.1449 37.2592 30.1118L31.4286 28.2081V10.2857C31.4286 7.76098 29.3819 5.71429 26.8571 5.71429H13.1429C10.6181 5.71429 8.57143 7.76099 8.57143 10.2857V29.7143C8.57143 32.239 10.6181 34.2857 13.1429 34.2857H26.1093L27.5005 38.546C25.1843 39.4837 22.6524 40 20 40C8.9543 40 0 31.0457 0 20C0 8.9543 8.9543 0 20 0C31.0457 0 40 8.9543 40 20Z" fill="#0D9E47"/>
<path d="M24.5225 29.4264L24.1493 28.2835H18.2857V29.4264H24.5225Z" fill="#0D9E47"/>
<path d="M16.2126 9.63461C16.3692 9.3606 16.274 9.01154 16 8.85496C15.726 8.69839 15.3769 8.79358 15.2203 9.06759L13.9158 11.3505L13.3795 10.8141C13.1564 10.591 12.7946 10.591 12.5714 10.8141C12.3483 11.0373 12.3483 11.3991 12.5714 11.6223L13.6367 12.6876C13.9032 12.954 14.35 12.8942 14.5369 12.567L16.2126 9.63461Z" fill="#0D9E47"/>
<path d="M18.2857 11.1407H28.5714V12.2835H18.2857V11.1407Z" fill="#0D9E47"/>
<path d="M28.5714 22.5692H18.2857V23.7121H28.5714V22.5692Z" fill="#0D9E47"/>
<path d="M18.2857 16.8549H28.5714V17.9978H18.2857V16.8549Z" fill="#0D9E47"/>
<path d="M16 26.5693C16.274 26.7258 16.3692 27.0749 16.2126 27.3489L14.5369 30.2813C14.35 30.6085 13.9032 30.6683 13.6367 30.4019L12.5714 29.3366C12.3483 29.1134 12.3483 28.7516 12.5714 28.5284C12.7946 28.3053 13.1564 28.3053 13.3795 28.5284L13.9158 29.0647L15.2203 26.7819C15.3769 26.5079 15.726 26.4127 16 26.5693Z" fill="#0D9E47"/>
<path d="M16.2126 15.3489C16.3692 15.0749 16.274 14.7258 16 14.5692C15.726 14.4127 15.3769 14.5079 15.2203 14.7819L13.9158 17.0647L13.3795 16.5284C13.1564 16.3053 12.7946 16.3053 12.5714 16.5284C12.3483 16.7516 12.3483 17.1134 12.5714 17.3366L13.6367 18.4019C13.9032 18.6683 14.35 18.6085 14.5369 18.2813L16.2126 15.3489Z" fill="#0D9E47"/>
<path d="M13.9999 22.1826L14.9915 21.1911C15.1771 21.0054 15.4781 21.0054 15.6638 21.1911C15.8494 21.3767 15.8494 21.6777 15.6638 21.8634L14.6722 22.8549L15.6638 23.8465C15.8494 24.0321 15.8494 24.3331 15.6638 24.5188C15.4781 24.7044 15.1771 24.7044 14.9915 24.5188L13.9999 23.5272L13.0084 24.5188C12.8227 24.7044 12.5217 24.7044 12.3361 24.5188C12.1504 24.3331 12.1504 24.0321 12.3361 23.8465L13.3276 22.8549L12.3361 21.8634C12.1504 21.6777 12.1504 21.3767 12.3361 21.1911C12.5217 21.0054 12.8227 21.0054 13.0084 21.1911L13.9999 22.1826Z" fill="#0D9E47"/>
<path d="M36.3832 37.9883L35.7033 38.6681C35.6436 38.728 35.5726 38.7756 35.4945 38.808C35.4163 38.8404 35.3326 38.8571 35.2479 38.8571C35.1633 38.8571 35.0796 38.8404 35.0014 38.808C34.9233 38.7756 34.8523 38.728 34.7926 38.6681L31.762 35.6377L30.7318 38.3247L30.7248 38.3424C30.6591 38.4953 30.5499 38.6256 30.4107 38.7169C30.2716 38.8083 30.1086 38.8567 29.9421 38.8561H29.9003C29.7268 38.8488 29.5596 38.7884 29.4216 38.683C29.2835 38.5776 29.1811 38.4323 29.1283 38.2668L26.3281 29.6916C26.279 29.5416 26.2724 29.3808 26.3091 29.2273C26.3458 29.0737 26.4243 28.9333 26.536 28.8217C26.6476 28.71 26.788 28.6315 26.9416 28.5948C27.0952 28.5581 27.2559 28.5647 27.406 28.6138L35.9819 31.4138C36.1458 31.4687 36.2893 31.5718 36.3936 31.7096C36.4978 31.8474 36.558 32.0135 36.5662 32.1861C36.5743 32.3588 36.5301 32.5298 36.4393 32.6769C36.3486 32.8239 36.2154 32.9401 36.0574 33.0102L36.0397 33.0171L33.3525 34.0494L36.3832 37.0792C36.5037 37.1998 36.5714 37.3633 36.5714 37.5338C36.5714 37.7042 36.5037 37.8677 36.3832 37.9883Z" fill="#0D9E47"/>
</svg>
