<svg viewBox="0 0 64 64" fill="none" xmlns="http://www.w3.org/2000/svg">
<rect width="64" height="64" rx="20" fill="white"/>
<path d="M10.944 16.448C11.232 16.16 11.6 15.984 12.048 15.92C12.528 15.824 13.088 15.776 13.728 15.776H25.584C26 15.776 26.464 15.776 26.976 15.776C27.52 15.744 28.032 15.776 28.512 15.872C28.992 15.968 29.408 16.144 29.76 16.4C30.144 16.624 30.416 16.992 30.576 17.504C30.672 17.824 30.704 18.192 30.672 18.608C30.672 19.024 30.592 19.424 30.432 19.808C30.304 20.16 30.096 20.48 29.808 20.768C29.52 21.024 29.168 21.168 28.752 21.2C27.92 21.36 27.056 21.408 26.16 21.344C25.264 21.248 24.4 21.2 23.568 21.2C22.64 21.2 21.824 21.232 21.12 21.296C20.416 21.36 19.616 21.392 18.72 21.392C18.368 21.392 17.92 21.376 17.376 21.344C16.832 21.312 16.416 21.344 16.128 21.44C15.872 21.504 15.664 21.632 15.504 21.824C15.376 22.016 15.28 22.24 15.216 22.496C15.152 22.72 15.12 22.96 15.12 23.216C15.12 23.472 15.12 23.696 15.12 23.888C15.12 24.432 15.088 24.992 15.024 25.568C14.992 26.112 14.96 26.656 14.928 27.2C14.864 27.936 14.96 28.352 15.216 28.448C15.504 28.512 15.984 28.448 16.656 28.256C17.808 27.968 18.992 27.824 20.208 27.824C21.84 27.824 23.36 28.048 24.768 28.496C26.176 28.912 27.392 29.568 28.416 30.464C29.472 31.328 30.288 32.432 30.864 33.776C31.472 35.088 31.776 36.624 31.776 38.384C31.776 38.704 31.76 39.008 31.728 39.296C31.728 39.584 31.696 39.872 31.632 40.16C31.376 42.176 30.624 43.952 29.376 45.488C28.128 47.024 26.544 48.128 24.624 48.8C22.352 49.664 20 50.064 17.568 50C15.136 49.904 12.896 49.2 10.848 47.888C10.272 47.536 9.744 47.12 9.264 46.64C8.784 46.128 8.432 45.552 8.208 44.912C7.952 44.24 7.872 43.552 7.968 42.848C8.096 42.112 8.528 41.568 9.264 41.216C9.808 40.96 10.304 40.88 10.752 40.976C11.232 41.04 11.68 41.2 12.096 41.456C12.512 41.68 12.912 41.968 13.296 42.32C13.712 42.64 14.128 42.912 14.544 43.136C15.28 43.488 16.048 43.792 16.848 44.048C17.648 44.272 18.496 44.384 19.392 44.384C21.376 44.384 22.96 43.856 24.144 42.8C25.36 41.744 25.968 40.32 25.968 38.528C25.968 36.8 25.344 35.456 24.096 34.496C22.848 33.504 21.168 33.008 19.056 33.008C18.512 33.008 17.968 33.04 17.424 33.104C16.88 33.168 16.336 33.28 15.792 33.44C15.28 33.568 14.768 33.712 14.256 33.872C13.776 34.032 13.296 34.144 12.816 34.208C12.336 34.24 11.856 34.192 11.376 34.064C10.928 33.904 10.496 33.568 10.08 33.056C9.664 32.608 9.456 32.064 9.456 31.424C9.456 30.784 9.488 30.192 9.552 29.648C9.616 28.72 9.664 27.792 9.696 26.864C9.728 25.936 9.776 25.008 9.84 24.08C9.904 23.152 9.952 22.24 9.984 21.344C10.048 20.416 10.112 19.488 10.176 18.56C10.208 18.016 10.288 17.584 10.416 17.264C10.544 16.944 10.72 16.672 10.944 16.448ZM49.0631 28.304L54.4391 28.352C54.9831 28.256 55.3831 28.288 55.6391 28.448C55.9271 28.608 56.2951 28.864 56.7431 29.216C57.1911 29.568 57.4151 30.064 57.4151 30.704C57.4151 31.024 57.3511 31.36 57.2231 31.712C57.1271 32.064 56.9831 32.32 56.7911 32.48C56.5351 32.736 56.2631 32.928 55.9751 33.056C55.6871 33.152 55.3991 33.232 55.1111 33.296C54.8551 33.328 54.6311 33.344 54.4391 33.344C54.2791 33.344 54.1831 33.344 54.1511 33.344H49.0631V38.912C49.1591 39.456 49.1271 40.016 48.9671 40.592C48.8071 41.136 48.5511 41.632 48.1991 42.08C47.8471 42.528 47.3511 42.752 46.7111 42.752C46.3911 42.752 45.9751 42.704 45.4631 42.608C44.9511 42.48 44.6151 42.32 44.4551 42.128C44.1991 41.872 44.0071 41.552 43.8791 41.168C43.7831 40.752 43.7031 40.352 43.6391 39.968C43.6071 39.584 43.5911 39.264 43.5911 39.008C43.5911 38.72 43.5911 38.56 43.5911 38.528L43.5431 33.392H39.5111C39.1591 33.392 38.8551 33.408 38.5991 33.44C38.3751 33.44 38.1511 33.424 37.9271 33.392C37.7351 33.328 37.5431 33.248 37.3511 33.152C37.1591 33.056 36.9351 32.896 36.6791 32.672C36.0071 32.192 35.6711 31.6 35.6711 30.896C35.6711 30.448 35.7991 30.016 36.0551 29.6C36.3431 29.152 36.7431 28.848 37.2551 28.688C37.5751 28.592 37.8311 28.512 38.0231 28.448C38.2471 28.384 38.4391 28.336 38.5991 28.304C38.7911 28.272 38.9831 28.256 39.1751 28.256C39.3991 28.224 39.6871 28.208 40.0391 28.208L43.5431 28.256V24.56C43.5111 23.824 43.5111 23.072 43.5431 22.304C43.5751 21.504 43.8151 20.832 44.2631 20.288C44.5191 19.936 44.8711 19.664 45.3191 19.472C45.7671 19.28 46.1671 19.184 46.5191 19.184C46.9671 19.184 47.3991 19.344 47.8151 19.664C48.2631 19.952 48.5671 20.352 48.7271 20.864C48.9511 21.536 49.0471 22.224 49.0151 22.928C49.0151 23.632 49.0311 24.352 49.0631 25.088V28.304Z" fill="#72DFD9"/>
</svg>
